<?xml version="1.0" encoding="UTF-8"?>
<svg xmlns="http://www.w3.org/2000/svg" width="102" height="102" viewBox="0 0 102 102">
  <rect x="4.58" y="4.46" width="92.84" height="93.08" rx="12" ry="12" fill="#000"/>
  <path d="M63.064,65.8559 L59.544,56.9599 L42.008,56.9599 L38.68,65.8559 L26.776,65.8559 L45.784,20.5439 L56.408,20.5439 L75.224,65.8559 L63.064,65.8559 M50.904,32.6399 L45.144,48.1919 L56.536,48.1919 L50.904,32.6399 Z" fill="#fff"/>
  <path d="M26 82 L26 71 L31.16 71 C32.11 71 32.85 71.08 33.35 71.24 C33.86 71.40 34.27 71.71 34.58 72.15 C34.89 72.59 35.04 73.13 35.04 73.77 C35.04 74.33 34.92 74.81 34.68 75.22 C34.45 75.62 34.12 75.95 33.71 76.20 C33.44 76.36 33.08 76.49 32.62 76.59 C32.99 76.71 33.26 76.84 33.43 76.96 C33.54 77.04 33.71 77.22 33.92 77.49 C34.14 77.76 34.28 77.97 34.36 78.12 L35.85 82 L32.35 82 L30.70 78.94 C30.49 78.54 30.30 78.28 30.14 78.16 C29.92 78.00 29.66 77.93 29.38 77.93 L29.11 77.93 L29.11 82 L26 82 M29.11 76.04 L30.41 76.04 C30.55 76.04 30.83 75.99 31.23 75.89 C31.44 75.85 31.61 75.74 31.74 75.57 C31.87 75.40 31.93 75.21 31.93 75.00 C31.93 74.68 31.83 74.43 31.62 74.26 C31.42 74.09 31.03 74.00 30.47 74.00 L29.11 74.00 L29.11 76.04 M46.05 71 L55.46 71 L55.46 73.47 L52.30 73.47 L52.30 82 L49.21 82 L49.21 73.47 L46.05 73.47 L46.05 71 M56.86 71 L65.15 71 L65.15 73.14 L59.96 73.14 L59.96 74.74 L64.78 74.74 L64.78 76.81 L59.96 76.81 L59.96 78.79 L65.30 78.79 L65.30 82 L56.86 82 L56.86 71 M67.01 71 L71.61 71 C72.52 71 73.25 71.12 73.81 71.36 C74.37 71.60 74.83 71.95 75.20 72.41 C75.56 72.87 75.82 73.40 75.99 74.01 C76.15 74.63 76.23 75.28 76.23 75.97 C76.23 77.05 76.11 77.89 75.87 78.48 C75.62 79.07 75.29 79.56 74.85 79.96 C74.42 80.36 73.96 80.63 73.46 80.77 C72.78 80.95 72.16 81.04 71.61 81.04 L67.01 81.04 L67.01 71 M70.11 73.25 L70.11 78.64 L70.87 78.64 C71.52 78.64 71.98 78.57 72.25 78.43 C72.52 78.29 72.74 78.04 72.89 77.69 C73.05 77.34 73.12 76.77 73.12 75.99 C73.12 74.94 72.95 74.22 72.60 73.83 C72.26 73.45 71.68 73.25 70.88 73.25 L70.11 73.25 Z" fill="#fff"/>
</svg>
